#!OML:ASF H:\Dans Jumps\Project 1\Capture day 1\Session 1\subject.ASF
:FULLY-SPECIFIED
:DEGREES
162
root 0.343119 17.5533 -14.0565 6.81578 0.154988 -1.58453
lowerback -1.54865 -0.322785 0.138292
upperback 2.66359 -0.490657 1.71003
thorax 3.62139 -0.266479 1.65999
lowerneck -14.3918 0.174407 -1.97008
upperneck 29.6532 0.373063 1.36352
head 12.1331 0.120277 0.90816
rclavicle -9.93923e-016 -8.15017e-015
rhumerus -17.2624 -10.623 -86.1231
rradius 25.1872
rwrist 30.9368
rhand -19.1838 -26.4406
rfingers 7.12502
rthumb 7.1277 -56.3006
lclavicle -9.93923e-016 -8.15017e-015
lhumerus -15.2292 -6.41445 92.3723
lradius 18.8615
lwrist 1.55744
lhand -25.2609 -4.32793
lfingers 7.12502
lthumb 1.25957 25.6481
rfemur -13.377 -2.70587 19.5926
rtibia 21.338
rfoot -13.7063 -3.2593
rtoes 9.78417
lfemur -12.2004 6.84775 -17.6162
ltibia 19.467
lfoot -10.7923 7.21091
ltoes -3.82607
163
root 0.345097 17.5514 -14.0645 6.83711 0.125421 -1.59918
lowerback -1.48149 -0.31459 0.142991
upperback 2.67268 -0.47953 1.71918
thorax 3.59253 -0.260898 1.66757
lowerneck -14.3974 0.176153 -1.97377
upperneck 29.6321 0.38072 1.35082
head 12.1257 0.121756 0.904939
rclavicle 6.55989e-015 -1.61016e-014
rhumerus -17.2683 -10.5899 -86.1103
rradius 25.2173
rwrist 30.9027
rhand -19.1879 -26.456
rfingers 7.12502
rthumb 7.12379 -56.3161
lclavicle 6.55989e-015 -1.61016e-014
lhumerus -15.2792 -6.44194 92.3283
lradius 18.8762
lwrist 1.57708
lhand -25.2985 -4.33646
lfingers 7.12502
lthumb 1.22329 25.6398
rfemur -13.4976 -2.70819 19.6056
rtibia 21.4492
rfoot -13.7046 -3.24141
rtoes 9.68672
lfemur -12.3266 6.87909 -17.6156
ltibia 19.6114
lfoot -10.8198 7.21973
ltoes -3.84007
164
root 0.347065 17.5492 -14.0731 6.85627 0.0923698 -1.61265
lowerback -1.40474 -0.304859 0.147461
upperback 2.68409 -0.46621 1.72677
thorax 3.56058 -0.254206 1.67379
lowerneck -14.4083 0.179773 -1.9722
upperneck 29.6122 0.390653 1.33513
head 12.1199 0.124458 0.900051
rclavicle 7.25564e-015 -2.66371e-014
rhumerus -17.2737 -10.552 -86.0986
rradius 25.2522
rwrist 30.866
rhand -19.2002 -26.4588
rfingers 7.12502
rthumb 7.11193 -56.3193
lclavicle 7.25564e-015 -2.66371e-014
lhumerus -15.3305 -6.49345 92.2816
lradius 18.9023
lwrist 1.6348
lhand -25.3222 -4.32479
lfingers 7.12502
lthumb 1.20038 25.6516
rfemur -13.6248 -2.70489 19.6168
rtibia 21.5732
rfoot -13.7052 -3.22566
rtoes 9.58199
lfemur -12.4564 6.91628 -17.6169
ltibia 19.7633
lfoot -10.8484 7.22782
ltoes -3.86532
165
root 0.34906 17.5468 -14.0823 6.87468 0.0580207 -1.62161
lowerback -1.3188 -0.29502 0.148003
upperback 2.69689 -0.45248 1.73293
thorax 3.52487 -0.247389 1.68076
lowerneck -14.4241 0.184749 -1.97077
upperneck 29.5943 0.402566 1.31981
head 12.1159 0.128069 0.895656
rclavicle 2.08724e-015 1.45113e-014
rhumerus -17.2791 -10.5033 -86.0865
rradius 25.2916
rwrist 30.8291
rhand -19.223 -26.4419
rfingers 7.12502
rthumb 7.08989 -56.3031
lclavicle 2.08724e-015 1.45113e-014
lhumerus -15.38 -6.556 92.2326
lradius 18.9396
lwrist 1.73451
lhand -25.3185 -4.25556
lfingers 7.12502
lthumb 1.20391 25.7208
rfemur -13.7622 -2.70006 19.6235
rtibia 21.7114
rfoot -13.7079 -3.2155
rtoes 9.44393
lfemur -12.5928 6.96101 -17.6241
ltibia 19.9246
lfoot -10.8816 7.23232
ltoes -3.89642
166
root 0.351047 17.5441 -14.0923 6.88797 0.0204134 -1.63052
lowerback -1.22036 -0.283136 0.1495
upperback 2.71467 -0.435932 1.73762
thorax 3.48715 -0.239131 1.68583
lowerneck -14.4477 0.189701 -1.96645
upperneck 29.5748 0.41356 1.30531
head 12.1128 0.131721 0.890959
rclavicle 4.12478e-015 -1.03368e-014
rhumerus -17.2834 -10.438 -86.0759
rradius 25.3413
rwrist 30.7781
rhand -19.2468 -26.3996
rfingers 7.12502
rthumb 7.06689 -56.2616
lclavicle 4.12478e-015 -1.03368e-014
lhumerus -15.4238 -6.62382 92.1787
lradius 18.9984
lwrist 1.88342
lhand -25.2595 -4.10578
lfingers 7.12502
lthumb 1.26091 25.8702
rfemur -13.904 -2.68837 19.6296
rtibia 21.8652
rfoot -13.7183 -3.20883
rtoes 9.31167
lfemur -12.7325 7.01668 -17.6317
ltibia 20.0987
lfoot -10.92 7.23222
ltoes -3.93369
167
root 0.353013 17.5409 -14.103 6.89456 -0.0195871 -1.63492
lowerback -1.10596 -0.270413 0.146561
upperback 2.73746 -0.417962 1.74031
thorax 3.44557 -0.23026 1.69139
lowerneck -14.4755 0.194291 -1.9605
upperneck 29.5481 0.42318 1.29234
head 12.1078 0.135189 0.886319
rclavicle 7.55382e-015 -2.62396e-014
rhumerus -17.2856 -10.3541 -86.0671
rradius 25.4026
rwrist 30.706
rhand -19.2631 -26.3404
rfingers 7.12502
rthumb 7.05114 -56.2029
lclavicle 7.55382e-015 -2.62396e-014
lhumerus -15.4629 -6.68446 92.118
lradius 19.0703
lwrist 2.04211
lhand -25.1636 -3.92144
lfingers 7.12502
lthumb 1.35355 26.054
rfemur -14.0495 -2.67195 19.6302
rtibia 22.0371
rfoot -13.7387 -3.20568
rtoes 9.18003
lfemur -12.8758 7.08432 -17.6445
ltibia 20.2884
lfoot -10.9655 7.22586
ltoes -3.98193
168
root 0.355034 17.5373 -14.1147 6.89747 -0.0609112 -1.63686
lowerback -0.977234 -0.256726 0.14236
upperback 2.76375 -0.398524 1.74171
thorax 3.39948 -0.220669 1.69638
lowerneck -14.5053 0.198822 -1.95172
upperneck 29.5135 0.432021 1.27922
head 12.1001 0.138655 0.880959
rclavicle -1.54058e-015 1.64991e-014
rhumerus -17.2922 -10.2511 -86.0574
rradius 25.4796
rwrist 30.6098
rhand -19.282 -26.2542
rfingers 7.12502
rthumb 7.03293 -56.1173
lclavicle -1.54058e-015 1.64991e-014
lhumerus -15.5066 -6.74978 92.0549
lradius 19.1506
lwrist 2.18934
lhand -25.0835 -3.78833
lfingers 7.12502
lthumb 1.43091 26.1866
rfemur -14.2048 -2.6555 19.6283
rtibia 22.2294
rfoot -13.768 -3.20533
rtoes 9.04085
lfemur -13.029 7.16259 -17.6607
ltibia 20.4981
lfoot -11.019 7.2135
ltoes -4.03268
169
root 0.357062 17.533 -14.1274 6.90092 -0.104964 -1.63264
lowerback -0.833723 -0.242315 0.131484
upperback 2.79018 -0.37776 1.74211
thorax 3.34518 -0.210553 1.70413
lowerneck -14.534 0.204615 -1.93835
upperneck 29.4699 0.443045 1.26069
head 12.0886 0.142966 0.872998
rclavicle 3.77691e-015 -1.66979e-014
rhumerus -17.3079 -10.1252 -86.0443
rradius 25.5758
rwrist 30.475
rhand -19.2929 -26.1641
rfingers 7.12502
rthumb 7.02246 -56.0276
lclavicle 3.77691e-015 -1.66979e-014
lhumerus -15.5601 -6.83007 91.9928
lradius 19.2361
lwrist 2.32119
lhand -25.0532 -3.76164
lfingers 7.12502
lthumb 1.46016 26.2131
rfemur -14.3774 -2.63601 19.6198
rtibia 22.4455
rfoot -13.8067 -3.20936
rtoes 8.89019
lfemur -13.1998 7.24911 -17.685
ltibia 20.7315
lfoot -11.0804 7.19852
ltoes -4.09174
170
root 0.359183 17.528 -14.1414 6.90505 -0.150492 -1.62587
lowerback -0.671705 -0.22714 0.120146
upperback 2.81518 -0.35574 1.74174
thorax 3.27891 -0.199759 1.71136
lowerneck -14.555 0.211347 -1.91974
upperneck 29.4128 0.455688 1.23601
head 12.0701 0.147868 0.861901
rclavicle -2.28602e-015 4.77083e-015
rhumerus -17.3341 -9.99195 -86.0258
rradius 25.6886
rwrist 30.304
rhand -19.2877 -26.0633
rfingers 7.12502
rthumb 7.02739 -55.9267
lclavicle -2.28602e-015 4.77083e-015
lhumerus -15.6333 -6.93416 91.9316
lradius 19.3347
lwrist 2.42952
lhand -25.0641 -3.82651
lfingers 7.12502
lthumb 1.44965 26.1483
rfemur -14.5694 -2.61523 19.6083
rtibia 22.6877
rfoot -13.8554 -3.21466
rtoes 8.75269
lfemur -13.3911 7.33663 -17.7135
ltibia 20.9932
lfoot -11.1481 7.18719
ltoes -4.16701
171
root 0.361257 17.5224 -14.1569 6.9234 -0.198108 -1.61914
lowerback -0.506442 -0.212362 0.106365
upperback 2.83825 -0.334262 1.74461
thorax 3.20889 -0.18932 1.7232
lowerneck -14.5727 0.221713 -1.90252
upperneck 29.3425 0.47577 1.20521
head 12.0456 0.155225 0.84969
rclavicle 3.47873e-016 -1.19271e-015
rhumerus -17.3646 -9.85741 -85.9979
rradius 25.811
rwrist 30.1177
rhand -19.2846 -25.9706
rfingers 7.12502
rthumb 7.03048 -55.8338
lclavicle 3.47873e-016 -1.19271e-015
lhumerus -15.7264 -7.07676 91.8771
lradius 19.4614
lwrist 2.55363
lhand -25.1178 -3.95556
lfingers 7.12502
lthumb 1.39776 26.0196
rfemur -14.7995 -2.58988 19.5985
rtibia 22.959
rfoot -13.909 -3.22894
rtoes 8.58678
lfemur -13.6202 7.42117 -17.7443
ltibia 21.286
lfoot -11.2207 7.18251
ltoes -4.2432
172
root 0.363274 17.5159 -14.1737 6.9453 -0.247886 -1.61505
lowerback -0.32751 -0.196267 0.0960373
upperback 2.86278 -0.311041 1.74842
thorax 3.13262 -0.177907 1.73407
lowerneck -14.5835 0.233483 -1.8838
upperneck 29.2527 0.49812 1.17172
head 12.0119 0.163538 0.836351
rclavicle -9.93923e-016 7.95139e-016
rhumerus -17.3976 -9.73412 -85.9638
rradius 25.9399
rwrist 29.9133
rhand -19.2771 -25.8829
rfingers 7.12502
rthumb 7.03768 -55.7459
lclavicle -9.93923e-016 7.95139e-016
lhumerus -15.8401 -7.26023 91.8247
lradius 19.6272
lwrist 2.71878
lhand -25.1852 -4.11577
lfingers 7.12502
lthumb 1.33265 25.8598
rfemur -15.0545 -2.55727 19.5916
rtibia 23.2603
rfoot -13.9701 -3.24794
rtoes 8.42538
lfemur -13.8766 7.50088 -17.7732
ltibia 21.6136
lfoot -11.2974 7.18836
ltoes -4.34324
